<?xml version="1.0" encoding="UTF-8"?><svg id="uuid-2634f49c-0997-4edb-8ff7-c9a8f6c0cfd5" xmlns="http://www.w3.org/2000/svg" viewBox="0 0 60 60"><g id="uuid-be113b6e-8f6c-411f-a910-d6bbc2f5a522"><g id="uuid-d48bcfdb-ec5b-4d0a-b79d-24c16c4abc71"><path id="uuid-12a03754-1dff-417e-80cc-321042f12f1c" d="M0,14.47v45.53h45.53c7.99,0,14.47-6.48,14.47-14.47V0H14.47C6.48,0,0,6.48,0,14.47ZM16.49,48.96v-.04c0-.54,0-1.57,0-2.97V8.6h9.14v13.73l.04-.13v.11c1.76-.59,3.68-.89,5.7-.89,8.21,0,14.88,6.71,14.88,14.98,0,7.78-5.9,14.18-13.44,14.91h-15.07c-1-.35-1.21-1.37-1.25-1.93v-.43Z" style="fill-rule:evenodd;"/><path id="uuid-7e60db07-bf2b-4f2c-8fac-64bb21118f9c" d="M25.72,42.5h6.17c3.24-.1,5.85-2.77,5.85-6.06s-2.7-6.06-6.02-6.06-6.02,1.98-6.02,6.06c0,.11.01.22.02.33v5.72h0Z" style="fill-rule:evenodd;"/></g></g></svg>